PathFileType	3	(X/Y/Z)	D:\Vicon Setup\UG\Test1\New Session\NewSession14.trc
DataRate	CameraRate	NumFrames	NumMarkers	Units	OrigDataRate	OrigDataStartFrame	OrigNumFrames
100.0	100.0	10	27	mm	100.0	376	173	
Frame#	Time	Sternum			LShoulder			RShoulder			LASIS			RASIS			RPSIS			LPSIS			RKneeLateral			RKneeMedial			RFibulaHead			RMidShank			RAnkleLateral			RAnkleMedial			RHeel			RMT5			RMT2			RToe			LKneeLateral			LKneeMedial			LFibulaHead			LMidShank			LAnkleLateral			LAnkleMedial			LHeel			LMT5			LMT2			LToe			
		X1	Y1	Z1	X2	Y2	Z2	X3	Y3	Z3	X4	Y4	Z4	X5	Y5	Z5	X6	Y6	Z6	X7	Y7	Z7	X8	Y8	Z8	X9	Y9	Z9	X10	Y10	Z10	X11	Y11	Z11	X12	Y12	Z12	X13	Y13	Z13	X14	Y14	Z14	X15	Y15	Z15	X16	Y16	Z16	X17	Y17	Z17	X18	Y18	Z18	X19	Y19	Z19	X20	Y20	Z20	X21	Y21	Z21	X22	Y22	Z22	X23	Y23	Z23	X24	Y24	Z24	X25	Y25	Z25	X26	Y26	Z26	X27	Y27	Z27	
376	3.75	-177.70013	1306.3567	-303.10425	-364.78333	1398.0756	-214.40623	10.074157	1346.9421	-225.18141	-319.86255	938.81976	-200.66985	-58.430275	957.78442	-207.17316	-131.72569	987.93848	-31.216408	-261.92432	976.69604	-26.140032	-45.830891	485.2001	-190.2523	-176.53879	470.80777	-215.72844	-49.463047	404.06857	-178.95845	-153.03294	258.49362	-134.73145	-108.96555	96.386635	-9.2072678	-193.72432	118.2168	-59.089806	-168.56709	69.503036	66.91407	-69.498283	29.333551	-150.84415	-138.34927	55.328476	-158.61656	-138.86134	38.978439	-203.15887	-366.25638	507.60721	-308.38565	-237.66542	485.25812	-333.43353	-368.48184	477.56668	-272.85297	-285.54758	360.50247	-184.38568	-317.94498	295.63348	25.733734	-241.22566	270.25339	-21.666307	-244.18855	337.22897	75.804504				-302.92944	143.60466	-14.184641	-360.66632	147.89919	30.159586
377	3.76	-180.8045	1310.9027	-331.71075	-365.66415	1402.4395	-238.39723	9.0733986	1350.889	-258.25662	-320.27667	943.16071	-227.95206	-57.969406	961.17017	-237.1837	-130.8481	991.09552	-59.727619	-261.11346	980.35175	-54.28801	-46.734745	485.93451	-196.40897	-177.39421	472.25357	-220.61252	-49.98711	405.37943	-184.19905	-152.9893	259.95691	-138.63167	-108.41479	98.521133	-9.6831579	-193.42482	120.02625	-61.271317	-168.62798	73.274086	65.997017	-69.234779	28.813301	-150.61581	-137.99001	55.268044	-158.78101	-138.79465	38.759125	-202.91837	-366.02933	517.81805	-347.21344	-238.53722	498.05038	-373.0043	-368.48727	485.73715	-313.46707	-286.51633	361.95462	-233.19695	-317.06244	283.18088	-26.877636	-242.08356	260.46304	-77.921463	-242.46539	320.67728	25.573582				-305.3165	134.7865	-77.001236	-362.29291	136.14618	-31.137238
378	3.77	-184.10399	1315.9139	-360.08221	-366.27875	1407.777	-262.55649	7.7269001	1356.4506	-290.7951	-320.08719	948.336	-255.94724	-58.441612	963.7887	-266.23184	-130.28203	995.60059	-88.846588	-260.54889	985.02118	-82.731613	-48.088394	489.63748	-204.99071	-179.50328	475.27139	-224.72571	-50.926548	408.9472	-189.47345	-153.35437	263.25467	-142.33611	-108.41877	101.88272	-12.284306	-192.88918	123.09917	-64.288849	-168.25114	79.296005	63.841873	-69.201088	28.527649	-150.94269	-137.64685	55.21981	-159.30414	-138.72968	38.669483	-202.8799	-365.50659	528.03949	-384.26852	-239.08049	511.42169	-409.55542	-367.96472	493.07574	-352.38885	-286.44574	363.35709	-280.86887	-315.95877	269.62442	-79.4972	-242.26163	250.09174	-133.33195	-240.43318	302.42755	-25.666399				-307.16672	125.85603	-141.11339	-363.54736	124.12722	-94.267883
379	3.78	-187.46507	1321.6866	-388.48895	-366.85062	1413.9379	-287.00815	5.9928536	1363.1691	-323.31412	-319.93692	954.21747	-284.15436	-59.136765	966.84381	-295.24368	-130.03099	1001.1325	-118.31684	-260.17212	990.66443	-111.44869	-49.745628	494.67657	-215.30119	-181.62941	479.81607	-231.71405	-52.144062	414.68277	-195.72174	-153.96672	268.39728	-147.40308	-108.12012	107.02593	-15.606254	-192.01405	127.44421	-68.479836	-167.9252	87.802261	60.3764	-69.146194	28.021454	-150.70168	-137.47252	55.028221	-160.49651	-138.61772	38.691494	-203.0717	-364.3949	537.61115	-419.65912	-239.05595	524.58258	-444.75073	-367.43271	499.49774	-389.72879	-285.28192	364.62982	-327.35284	-315.06738	255.2903	-133.23129	-241.87173	239.53177	-188.69308	-238.93842	282.6171	-77.790932				-308.14496	117.4994	-206.54546	-364.3114	112.12396	-159.72176
380	3.79	-190.83037	1328.3524	-417.12848	-367.44626	1420.6206	-311.92285	4.2615495	1370.5178	-356.47568	-319.46851	960.42261	-312.83878	-59.538486	970.99377	-325.58633	-129.6998	1007.2228	-147.51862	-259.9588	996.88086	-140.61818	-51.538498	500.83417	-226.22452	-183.95097	485.22232	-241.62965	-53.455952	421.82379	-203.9964	-154.14743	275.17563	-154.09251	-107.73737	113.84645	-20.67082	-191.01712	133.27618	-73.392303	-166.86342	99.109497	55.425888	-69.265221	27.880833	-151.32402	-137.37807	54.5718	-162.37033	-138.96211	38.955063	-203.76701	-363.80344	546.58899	-453.66721	-238.82771	536.86829	-479.19586	-367.03711	504.41486	-425.96216	-283.4523	364.86481	-373.40359	-314.66974	240.7101	-188.08771	-240.68681	229.28003	-244.29099	-238.28148	262.07727	-130.01465				-307.77823	110.21905	-273.87903	-364.40131	100.75479	-228.13866
381	3.8	-193.99902	1335.8158	-445.99783	-367.93811	1427.6122	-337.31552	2.2010007	1378.5393	-389.07315	-319.08185	967.14331	-341.95651	-59.483616	974.41907	-349.05945	-129.63042	1013.5623	-177.44005	-259.99008	1003.6262	-170.07283	-52.898209	508.72528	-238.83504	-186.62668	492.34851	-253.87549	-54.427376	430.4584	-214.40224	-154.04346	283.2988	-162.97699	-106.5601	122.24343	-27.229145	-189.33839	139.62892	-80.571037	-165.75201	112.28625	48.646828	-69.27076	27.586359	-151.81534	-137.47658	53.960342	-164.57457	-139.49222	38.534573	-203.47168	-363.19641	554.24963	-486.5152	-238.28641	547.39087	-512.43158	-366.49017	507.73947	-461.10059	-281.70178	365.19666	-417.44507	-314.05347	225.26842	-244.56026	-239.23138	219.31808	-300.03918	-238.85971	240.9628	-183.13855				-305.81461	103.97977	-342.30109	-363.43893	90.398399	-298.8501
382	3.81	-197.02277	1343.7495	-474.92517	-368.43585	1434.839	-363.22247	0.017889101	1386.8862	-421.2247	-319.19659	974.16302	-371.19315	-60.407883	980.26959	-382.20639	-130.16945	1020.2882	-207.87833	-260.26608	1011.0237	-199.73143	-53.652466	517.62622	-253.62483	-189.01514	501.04535	-268.10361	-54.749813	440.13187	-226.66913	-153.18871	292.02472	-174.03113	-104.97727	131.60767	-36.158962	-187.24156	146.55569	-90.073784	-164.29256	127.31885	39.223644	-69.144585	27.181139	-152.66521	-137.07465	53.504951	-167.67726	-139.51906	38.662704	-204.01007	-362.66278	560.54211	-518.01245	-237.60483	555.83563	-543.44788	-365.9545	509.9176	-495.13876	-279.83221	365.24371	-460.30942	-314.67795	210.16434	-302.06058	-238.02625	209.47227	-355.60117	-240.65007	219.77165	-237.08932				-302.40836	98.89473	-411.22299	-361.30847	81.105751	-371.13733
383	3.82	-199.94279	1351.835	-503.83771	-369.11621	1441.9955	-389.69571	-2.4663954	1395.424	-452.79257	-319.47244	980.89398	-400.94012	-61.855888	986.56995	-413.43878	-131.10951	1027.319	-238.62706	-260.97653	1018.8346	-229.96944	-53.756863	526.7262	-270.72052	-190.1161	510.64874	-284.47733	-54.334515	450.02838	-241.02248	-151.5867	301.01794	-187.73244	-103.19154	141.56686	-47.367817	-184.34671	153.97067	-102.22221	-163.21103	143.6459	26.888552	-69.28318	26.771635	-153.96239	-137.52972	53.041428	-170.40306	-139.43053	38.776638	-204.77798	-361.87241	565.34161	-546.87494	-236.71565	562.61768	-571.82477	-365.47235	511.40277	-527.56219	-278.10953	364.92789	-502.17926	-314.41782	194.27049	-360.98895	-237.31442	200.0928	-411.38086	-243.22638	198.48265	-292.67184				-298.33331	95.369591	-479.97055	-358.27048	72.84964	-443.97507
384	3.83	-202.78101	1359.8792	-532.62939	-369.82086	1448.8049	-416.53726	-5.2575564	1403.6166	-484.24222	-319.95471	987.80847	-430.78305	-63.052437	992.46002	-443.9801	-132.46883	1034.4622	-269.74179	-262.10666	1026.744	-260.73764	-53.334232	535.30603	-290.38239	-190.16824	518.98712	-303.23486	-53.432613	459.74884	-257.74536	-149.28053	309.55817	-204.18629	-101.39848	151.60352	-60.815746	-181.03033	161.10025	-117.21288	-162.4933	160.89078	11.187938	-69.425041	26.891548	-155.32716	-137.8007	52.580914	-173.91539	-139.06297	38.635792	-206.07959	-361.26175	568.77777	-573.44385	-237.00409	567.52075	-597.69818	-365.29285	512.22852	-558.4165	-277.26035	363.93292	-542.91968	-314.88718	179.22313	-419.87894	-237.47191	191.46211	-467.07675	-246.28014	177.39496	-349.47131				-294.25497	93.752617	-547.73932	-354.53949	65.818314	-516.2312
385	3.84	-205.62315	1367.6891	-561.18671	-370.91647	1455.2861	-443.69928	-7.42872	1411.6128	-515.27509	-320.74744	994.21826	-461.10928	-64.504272	998.14618	-474.54559	-134.19183	1041.5143	-301.18445	-263.34131	1034.3932	-291.97549	-52.360371	543.35858	-311.90967	-189.1545	525.42261	-326.1622	-52.214771	469.19632	-276.38538	-146.142	317.14523	-223.39886	-99.432205	161.3624	-76.385033	-176.57794	167.46155	-135.3445	-162.1516	179.07033	-7.9802928	-69.982605	27.72625	-157.37323	-138.18576	51.974117	-177.48593	-138.54654	38.29483	-207.70566	-361.33179	571.25488	-599.82971	-237.72536	570.29053	-621.18042	-365.4411	512.15717	-587.73773	-277.29214	362.05658	-582.61786	-315.83432	164.99765	-478.51675	-238.37042	184.14088	-522.37457	-249.47388	157.61855	-406.51929				-290.59537	94.223221	-613.62787	-350.36246	60.348942	-586.80096
